<?xml version="1.0" standalone="no"?>
<!DOCTYPE svg PUBLIC "-//W3C//DTD SVG 20010904//EN"
 "http://www.w3.org/TR/2001/REC-SVG-20010904/DTD/svg10.dtd">
<svg version="1.0" xmlns="http://www.w3.org/2000/svg"
 width="640.000000pt" height="640.000000pt" viewBox="0 0 640.000000 640.000000"
 preserveAspectRatio="xMidYMid meet">
<metadata>
Created by potrace 1.11, written by Peter Selinger 2001-2013
</metadata>
<g transform="translate(0.000000,640.000000) scale(0.100000,-0.100000)"
fill="#000000" stroke="none">
<path d="M735 5745 c-16 -9 -40 -26 -52 -37 -22 -21 -56 -102 -46 -112 7 -6
10 -126 3 -126 -3 0 -5 -25 -5 -55 0 -30 2 -55 5 -55 6 0 4 -109 -2 -115 -2
-2 -1 -32 2 -67 3 -35 3 -84 0 -110 -3 -27 -2 -48 3 -48 4 0 6 -4 2 -10 -3 -5
-6 -52 -6 -104 0 -53 -4 -98 -8 -100 -4 -3 -25 -5 -47 -6 -21 0 -55 -1 -74 -1
-19 -1 -42 -1 -50 0 -56 3 -203 1 -242 -3 -88 -10 -154 -54 -193 -130 -20 -39
-20 -59 -20 -1915 l0 -1876 24 -49 c31 -63 94 -126 156 -156 l50 -25 2945 -3
c2885 -2 2946 -2 3002 17 31 11 64 25 73 33 61 51 86 80 111 128 l29 55 3
1374 c3 1528 6 1442 -64 1514 -61 62 -112 78 -244 76 -30 0 -62 0 -70 0 -8 1
-31 1 -50 0 -19 -1 -42 -1 -50 0 -8 0 -40 0 -70 0 -30 -1 -62 -1 -70 0 -8 1
-31 1 -50 0 -19 -1 -42 -1 -50 0 -8 0 -40 0 -70 0 -30 -1 -62 -1 -70 0 -8 1
-31 1 -50 0 -19 -1 -42 -1 -50 0 -8 0 -40 0 -70 0 -30 -1 -62 -1 -70 0 -8 1
-31 1 -50 0 -19 -1 -39 -1 -45 -1 -96 6 -275 5 -275 -1 0 -5 -4 -6 -9 -3 -4 3
-33 6 -64 7 l-56 2 -1 61 c0 34 -1 69 -1 79 0 9 0 34 0 55 0 20 0 48 1 62 4
109 4 140 0 140 -4 0 -4 101 0 120 0 3 0 61 0 130 -1 69 -1 131 -1 138 0 6 0
29 0 50 0 20 0 48 1 62 4 109 4 140 0 140 -4 0 -4 101 0 120 0 3 0 61 0 130
-2 159 0 212 6 222 3 4 0 8 -6 8 -6 0 -8 4 -5 10 3 5 6 38 5 72 0 145 -14 191
-77 252 -70 68 -50 67 -909 64 -748 -3 -770 -4 -803 -23 -79 -46 -119 -110
-127 -204 -8 -90 -10 -231 -3 -231 3 0 3 -22 -1 -50 -4 -27 -4 -50 -1 -50 4 0
4 -32 1 -71 -3 -39 -3 -75 1 -80 3 -6 3 -28 -1 -49 -4 -21 -4 -43 -1 -48 3 -6
4 -42 3 -82 l-4 -72 -29 4 c-17 3 -32 2 -34 -2 -3 -4 -22 -4 -44 0 -22 4 -45
4 -52 -1 -7 -4 -17 -6 -21 -3 -6 4 -158 6 -228 3 -8 -1 -37 0 -65 0 -27 0 -63
1 -79 1 -17 0 -32 2 -34 5 -2 2 -15 0 -28 -5 -23 -9 -24 -8 -24 38 0 26 0 63
1 82 1 19 1 42 0 50 -3 83 -1 232 4 240 3 5 1 10 -5 10 -6 0 -9 4 -5 9 7 12 7
314 1 385 -5 53 -25 87 -70 120 -24 18 -44 21 -157 23 -106 2 -136 -1 -163
-15 -58 -30 -86 -88 -86 -182 0 -25 0 -70 -1 -100 -1 -30 -1 -61 -1 -67 1 -7
1 -55 2 -105 0 -51 0 -140 1 -198 0 -58 0 -112 0 -120 -2 -61 0 -123 3 -128 7
-13 -14 -53 -24 -47 -13 8 -338 8 -351 0 -5 -4 -9 -2 -9 3 0 4 -22 6 -50 2
-27 -4 -50 -4 -50 0 0 4 -22 4 -50 0 -27 -4 -50 -4 -50 0 0 4 -14 5 -30 2 -28
-4 -30 -2 -30 24 1 16 1 71 1 122 0 50 -1 116 0 145 0 47 0 141 0 192 0 11 0
68 -1 128 0 59 1 111 1 115 1 4 1 9 0 12 -1 3 -3 31 -5 63 -3 62 -20 94 -70
131 -24 18 -44 21 -154 24 -101 2 -133 -1 -157 -13z m3015 -630 c10 6 201 8
280 2 122 -9 137 -47 128 -327 0 -13 1 -82 2 -179 1 -77 -42 -121 -128 -128
-31 -2 -65 -6 -74 -8 -10 -2 -18 1 -18 7 0 5 -5 6 -10 3 -11 -7 -190 -8 -280
-2 -107 8 -131 45 -130 199 1 121 1 125 0 201 -1 31 2 62 5 67 3 6 2 10 -3 10
-9 0 0 68 13 100 13 32 57 53 124 58 36 2 68 6 71 9 2 2 6 -1 8 -6 2 -6 8 -9
12 -6z m-2870 -955 c0 -3 25 -5 55 -5 30 0 55 3 55 6 0 3 23 3 50 -1 28 -4 50
-3 50 0 0 10 111 -7 137 -21 26 -14 53 -66 52 -100 0 -21 0 -63 0 -116 1 -103
0 -136 -4 -143 -3 -5 -2 -11 3 -14 5 -3 6 -28 2 -56 -4 -27 -3 -50 1 -50 4 0
4 -13 -1 -30 -5 -16 -6 -30 -2 -30 3 0 -9 -16 -28 -35 -19 -20 -48 -37 -67
-41 -42 -8 -143 -11 -143 -4 0 3 -25 5 -55 5 -30 0 -55 -3 -55 -6 0 -3 -22 -3
-50 1 -27 4 -50 3 -50 0 0 -10 -111 7 -137 21 -26 14 -53 66 -52 100 0 21 0
64 0 117 -1 98 0 125 3 131 3 4 1 13 -3 19 -4 7 -5 33 -1 58 4 24 3 47 -1 49
-4 3 -4 18 1 34 4 16 6 31 4 33 -9 9 64 67 94 75 35 9 142 11 142 3z m1280 0
c0 -3 25 -5 55 -5 30 0 55 3 55 6 0 3 23 3 50 -1 28 -4 50 -3 50 0 0 10 111
-7 137 -21 38 -21 57 -81 54 -179 -1 -8 0 -37 0 -65 1 -27 1 -57 0 -65 0 -8 0
-40 0 -70 0 -30 0 -59 0 -65 0 -5 -1 -30 -2 -55 -2 -55 -45 -106 -96 -116 -42
-8 -143 -11 -143 -4 0 3 -25 5 -55 5 -30 0 -55 -3 -55 -6 0 -3 -22 -3 -50 1
-27 4 -50 3 -50 0 0 -10 -111 7 -137 21 -26 14 -53 66 -52 100 0 21 0 64 0
117 -1 98 0 125 3 131 3 4 1 13 -3 19 -4 7 -5 33 -1 58 4 24 3 47 -1 49 -4 3
-4 18 1 34 4 16 6 31 4 33 -9 9 64 67 94 75 35 9 142 11 142 3z m1591 -4 c10
6 193 7 279 1 114 -8 130 -40 131 -246 0 -83 -2 -155 -6 -161 -3 -5 -2 -10 3
-10 6 0 9 -8 7 -17 -2 -10 -6 -44 -8 -75 -3 -33 -12 -66 -23 -81 -35 -46 -62
-50 -287 -47 -37 1 -71 -2 -76 -5 -6 -3 -12 -1 -16 5 -4 6 -10 8 -14 5 -20
-12 -119 -7 -151 9 -60 28 -71 66 -70 234 1 106 1 204 0 251 -2 90 39 131 139
139 36 2 68 6 71 9 2 2 6 -1 8 -6 2 -6 8 -9 13 -5z m-2911 -956 c19 3 53 3 76
0 22 -4 49 -3 60 0 10 4 32 4 49 0 17 -4 39 -4 49 0 24 8 123 -5 153 -21 26
-14 53 -66 52 -100 0 -21 0 -63 0 -116 1 -103 0 -136 -4 -143 -3 -5 -2 -11 3
-14 5 -3 6 -28 2 -56 -4 -27 -3 -50 1 -50 4 0 4 -13 -1 -30 -5 -16 -6 -30 -2
-30 13 0 -55 -63 -78 -72 -14 -5 -54 -9 -90 -8 -36 1 -71 1 -77 1 -7 0 -29 0
-48 0 -19 0 -43 0 -52 0 -287 -3 -293 3 -294 248 0 83 2 155 6 161 3 5 2 10
-3 10 -6 0 -9 8 -7 18 2 9 6 43 8 74 3 33 13 67 23 82 21 28 99 58 124 47 8
-4 31 -5 50 -1z m1280 0 c19 3 53 3 76 0 22 -4 49 -3 60 0 10 4 32 4 49 0 17
-4 39 -4 49 0 24 8 123 -5 153 -21 36 -19 52 -67 50 -147 -1 -40 0 -72 3 -72
3 0 4 -28 2 -62 -4 -91 -2 -170 4 -179 3 -5 2 -9 -3 -9 -4 0 -7 -17 -7 -37 2
-47 -43 -100 -93 -109 -42 -8 -143 -11 -143 -4 0 3 -25 5 -55 5 -30 0 -55 -2
-55 -5 0 -5 -78 -4 -166 4 -108 8 -124 41 -125 245 0 83 2 155 6 161 3 5 2 10
-3 10 -6 0 -9 8 -7 18 2 9 6 43 8 74 3 33 13 67 23 82 21 28 99 58 124 47 8
-4 31 -5 50 -1z m1758 1 c23 3 45 2 48 -3 3 -4 9 -6 13 -3 20 12 119 7 151 -9
63 -29 71 -60 71 -279 0 -59 -3 -112 -6 -118 -4 -5 -2 -9 3 -9 6 0 9 -8 7 -17
-2 -10 -6 -44 -8 -75 -7 -86 -51 -129 -128 -128 -97 1 -166 2 -179 2 -280 -9
-318 6 -327 128 -6 83 -4 270 2 281 4 5 2 9 -3 9 -6 0 -9 8 -7 18 2 9 6 43 8
74 8 96 47 127 160 127 33 0 61 1 63 3 2 3 23 2 46 -2 24 -3 62 -3 86 1z
m1473 -1 c39 3 72 3 74 -1 3 -3 25 -3 50 1 24 4 47 5 49 3 2 -2 39 -5 82 -6
48 -2 88 -8 102 -17 39 -26 56 -83 53 -180 -1 -8 0 -37 0 -65 1 -27 1 -56 0
-62 0 -11 0 -37 0 -100 0 -146 -22 -195 -92 -208 -18 -4 -116 -6 -149 -4 -8 1
-31 1 -50 0 -19 -1 -42 -1 -50 0 -8 1 -40 0 -70 -1 -210 -5 -230 16 -231 249
0 83 2 155 6 161 3 5 2 10 -3 10 -6 0 -9 8 -7 18 2 9 6 43 8 74 6 65 29 103
72 117 37 12 79 18 83 11 1 -3 34 -3 73 0z m-4481 -965 c10 6 201 8 280 2 114
-8 130 -40 131 -246 0 -83 -2 -155 -6 -161 -3 -5 -2 -10 3 -10 6 0 9 -8 7 -17
-2 -10 -6 -44 -8 -75 -7 -86 -51 -129 -128 -128 -97 1 -166 2 -179 2 -8 -1
-64 -1 -123 -2 -160 -1 -202 27 -202 131 0 27 -2 49 -5 49 -4 0 -4 40 0 135 1
20 1 124 0 160 0 11 0 28 -1 38 -1 35 22 82 48 101 16 12 49 21 92 24 36 2 68
6 71 9 2 2 6 -1 8 -6 2 -6 8 -9 12 -6z m1290 5 c0 -3 25 -5 55 -5 30 0 55 3
55 6 0 3 23 3 50 -1 28 -4 50 -3 50 0 0 10 111 -7 137 -21 36 -19 52 -67 50
-147 -1 -40 0 -72 3 -72 3 0 4 -28 2 -62 -4 -91 -2 -170 4 -179 3 -5 2 -9 -3
-9 -4 0 -7 -17 -7 -37 2 -47 -43 -100 -93 -109 -42 -8 -143 -11 -143 -4 0 3
-25 5 -55 5 -30 0 -55 -3 -55 -6 0 -3 -22 -3 -50 1 -27 4 -50 3 -50 0 0 -10
-111 7 -137 21 -38 21 -57 81 -54 179 1 8 0 38 0 65 -1 28 -1 57 0 65 1 26 1
119 0 127 -1 5 0 13 1 18 1 6 2 29 2 52 0 33 7 47 32 71 17 17 46 34 64 39 35
9 142 11 142 3z m3131 -5 c5 4 35 6 66 5 76 -1 80 -1 201 0 113 0 160 -13 181
-53 21 -40 22 -51 20 -282 0 -11 1 -46 1 -78 1 -31 -2 -61 -5 -66 -3 -5 -1
-12 4 -15 10 -6 5 -35 -11 -76 -17 -40 -54 -62 -116 -67 -31 -2 -65 -6 -74 -8
-10 -2 -18 1 -18 7 0 5 -4 7 -9 3 -11 -6 -198 -8 -281 -2 -114 8 -130 40 -131
246 0 83 2 155 6 161 3 5 2 10 -3 10 -6 0 -9 8 -7 18 2 9 6 43 8 74 6 65 29
103 72 117 42 14 79 17 83 8 2 -4 8 -5 13 -2z"/>
</g>
</svg>
